<svg xmlns="http://www.w3.org/2000/svg" width="960" height="540">
<rect width="100%" height="100%" fill="#ffffff"/>
<text x="480.0" y="40.0" text-anchor="middle" font-size="20" font-family="Arial">Top Accounts by Amount (Absolute)</text>
<line x1="80" y1="460" x2="880" y2="460" stroke="#333"/>
<line x1="80" y1="80" x2="80" y2="460" stroke="#333"/>
<rect x="88.00" y="80.00" width="64.00" height="380.00" fill="#4a90e2"/>
<text x="120.00" y="478" text-anchor="middle" font-size="10" font-family="Arial" transform="rotate(45 120.00,478)">11845.0</text>
<rect x="168.00" y="359.61" width="64.00" height="100.39" fill="#4a90e2"/>
<text x="200.00" y="478" text-anchor="middle" font-size="10" font-family="Arial" transform="rotate(45 200.00,478)">43180.0</text>
<rect x="248.00" y="362.20" width="64.00" height="97.80" fill="#4a90e2"/>
<text x="280.00" y="478" text-anchor="middle" font-size="10" font-family="Arial" transform="rotate(45 280.00,478)">43310.0</text>
<rect x="328.00" y="402.20" width="64.00" height="57.80" fill="#4a90e2"/>
<text x="360.00" y="478" text-anchor="middle" font-size="10" font-family="Arial" transform="rotate(45 360.00,478)">14260.0</text>
<rect x="408.00" y="409.98" width="64.00" height="50.02" fill="#4a90e2"/>
<text x="440.00" y="478" text-anchor="middle" font-size="10" font-family="Arial" transform="rotate(45 440.00,478)">16200.0</text>
<rect x="488.00" y="433.62" width="64.00" height="26.38" fill="#4a90e2"/>
<text x="520.00" y="478" text-anchor="middle" font-size="10" font-family="Arial" transform="rotate(45 520.00,478)">22110.0</text>
<rect x="568.00" y="437.05" width="64.00" height="22.95" fill="#4a90e2"/>
<text x="600.00" y="478" text-anchor="middle" font-size="10" font-family="Arial" transform="rotate(45 600.00,478)">70300-FS</text>
<rect x="648.00" y="441.44" width="64.00" height="18.56" fill="#4a90e2"/>
<text x="680.00" y="478" text-anchor="middle" font-size="10" font-family="Arial" transform="rotate(45 680.00,478)">86100.0</text>
<rect x="728.00" y="442.66" width="64.00" height="17.34" fill="#4a90e2"/>
<text x="760.00" y="478" text-anchor="middle" font-size="10" font-family="Arial" transform="rotate(45 760.00,478)">51110.0</text>
<rect x="808.00" y="443.03" width="64.00" height="16.97" fill="#4a90e2"/>
<text x="840.00" y="478" text-anchor="middle" font-size="10" font-family="Arial" transform="rotate(45 840.00,478)">16290.0</text>
</svg>